<?xml version="1.0" encoding="utf-8"?>
<!-- Generator: Adobe Illustrator 26.0.3, SVG Export Plug-In . SVG Version: 6.00 Build 0)  -->
<svg version="1.1" id="Слой_1" xmlns="http://www.w3.org/2000/svg" xmlns:xlink="http://www.w3.org/1999/xlink" x="0px" y="0px"
viewBox="0 0 1920 1080" style="enable-background:new 0 0 1920 1080;" xml:space="preserve">
<style type="text/css">
	.st0{stroke:#000000;stroke-miterlimit:10}.st1{fill:#FFFFFF}.st2{fill:#767676}.in-yang{animation:1s linear 0s normal none infinite running rot;-webkit-animation:1s linear 0s normal none infinite running rot;transform-origin:441% 640%;width:100px}@keyframes rot{0%{transform:rotate(0)}100%{transform:rotate(-360deg)}}@-webkit-keyframes rot{0%{transform:rotate(0)}100%{transform:rotate(-360deg)}}.rect_1{animation:1s linear 0s normal none infinite running op1;-webkit-animation:1s linear 0s normal none infinite running op1}@keyframes op1{0%{opacity:20%}12%{opacity:40%}25%{opacity:60%}37%{opacity:80%}50%{opacity:100%}62%{opacity:80%}75%{opacity:60%}88%{opacity:40%}100%{opacity:20%}}@-webkit-keyframes op1{0%{opacity:20%}12%{opacity:40%}25%{opacity:60%}37%{opacity:80%}50%{opacity:100%}62%{opacity:80%}75%{opacity:60%}88%{opacity:40%}100%{opacity:20%}}.rect_2{animation:1s linear 0s normal none infinite running op2;-webkit-animation:1s linear 0s normal none infinite running op2}@keyframes op2{0%{opacity:40%}12%{opacity:20%}25%{opacity:40%}37%{opacity:60%}50%{opacity:80%}62%{opacity:100%}75%{opacity:80%}88%{opacity:60%}100%{opacity:40%}}@-webkit-keyframes op2{0%{opacity:40%}12%{opacity:20%}25%{opacity:40%}37%{opacity:60%}50%{opacity:80%}62%{opacity:100%}75%{opacity:80%}88%{opacity:60%}100%{opacity:40%}}.rect_3{animation:1s linear 0s normal none infinite running op3;-webkit-animation:1s linear 0s normal none infinite running op3}@keyframes op3{0%{opacity:60%}12%{opacity:40%}25%{opacity:20%}37%{opacity:40%}50%{opacity:60%}62%{opacity:80%}75%{opacity:100%}88%{opacity:80%}100%{opacity:60%}}@-webkit-keyframes op3{0%{opacity:60%}12%{opacity:40%}25%{opacity:20%}37%{opacity:40%}50%{opacity:60%}62%{opacity:80%}75%{opacity:100%}88%{opacity:80%}100%{opacity:60%}}.rect_4{animation:1s linear 0s normal none infinite running op4;-webkit-animation:1s linear 0s normal none infinite running op4}@keyframes op4{0%{opacity:80%}12%{opacity:60%}25%{opacity:40%}37%{opacity:20%}50%{opacity:40%}62%{opacity:60%}75%{opacity:80%}88%{opacity:100%}100%{opacity:80%}}@-webkit-keyframes op4{0%{opacity:80%}12%{opacity:60%}25%{opacity:40%}37%{opacity:20%}50%{opacity:40%}62%{opacity:60%}75%{opacity:80%}88%{opacity:100%}100%{opacity:80%}}.rect_5{animation:1s linear 0s normal none infinite running op5;-webkit-animation:1s linear 0s normal none infinite running op5}@keyframes op5{0%{opacity:100%}12%{opacity:80%}25%{opacity:60%}37%{opacity:40%}50%{opacity:20%}62%{opacity:40%}75%{opacity:60%}88%{opacity:80%}100%{opacity:100%}}@-webkit-keyframes op5{0%{opacity:100%}12%{opacity:80%}25%{opacity:60%}37%{opacity:40%}50%{opacity:20%}62%{opacity:40%}75%{opacity:60%}88%{opacity:80%}100%{opacity:100%}} 
</style>
<g transform="translate(0.000000,1080.000000) scale(0.100000,-0.100000)">
	<g>
		<circle class="st0" cx="8469.9" cy="6915" r="2260"/>
		<circle class="st1" cx="8507.8" cy="6915" r="2000"/>
		<g class="in-yang">
			<path d="M8439,8111c-178-58-257-257-162-411c34-55,99-106,155-121c64-17,158-6,211,25c232,136,148,497-119,512
				C8491,8118,8453,8116,8439,8111z"/>
			<path d="M8229,9076c-252-39-464-105-678-211c-447-222-788-562-1003-1000c-151-310-219-601-219-945c0-340,64-623,210-927
				c115-239,238-412,430-603c349-348,796-565,1300-631c136-17,411-15,555,5c227,33,490,114,687,212c575,288,997,812,1153,1430
				c43,172,58,302,58,514c0,216-14,334-63,528c-208,822-887,1450-1744,1614C8774,9088,8365,9097,8229,9076z M8729,8585
				c55-6,132-22,245-51c68-18,145-65,217-132c162-152,241-369,233-642c-11-380-205-644-563-766c-96-33-170-48-367-78
				c-208-32-348-98-475-226c-98-97-143-175-186-315c-26-84-27-102-28-275c0-174,2-190,28-275c71-233,208-391,446-515l95-49h-55
				c-130-1-415,89-579,181c-292,164-517,402-666,703c-120,242-173,450-182,720c-17,494,175,968,525,1296c245,230,561,377,914,424
				C8430,8598,8605,8598,8729,8585z M8634,6285c52-26,112-87,136-138c27-61,26-173-3-234s-87-119-144-144c-51-21-146-25-206-9
				c-60,17-132,81-163,145c-35,70-37,170-6,240c26,59,97,129,152,148C8460,6315,8580,6311,8634,6285z"/>
		</g>
	</g>
	<path class="st2" d="M12929,9070c-840-115-1544-688-1804-1470c-197-592-132-1237,179-1765c164-278,422-547,700-727c180-117,448-233,650-282
		c39-10,78-20,88-22c16-5,17,12,17,259v264l-52,12c-84,19-244,87-335,142c-441,267-745,779-782,1321c-41,591,221,1156,693,1489
		c158,112,413,217,616,256c147,27,489,25,628-5c312-68,562-197,774-401c294-281,460-620,509-1036c14-121,6-377-15-495
		c-98-531-398-947-845-1171c-100-50-292-119-330-119h-21v430v430h-275h-275V5070V3960h275h275v418v419l107,22
		c715,150,1343,729,1583,1461c71,217,100,402,100,645c0,727-366,1390-995,1805c-242,159-514,267-825,326
		C13470,9074,13034,9084,12929,9070z"/>
	<path class="st2" d="M3332,8298c4-782,4-783,68-973c106-316,320-562,626-718c101-52,233-103,330-127l43-11l2-822l3-822l273-3l272-2v823v824
		l68,18c529,141,881,493,994,993c21,94,22,119,25,815l4,717h-275h-276v-677c-1-526-4-695-14-753c-42-231-172-410-369-504
		c-106-51-173-70-307-87c-144-17-313,2-453,50c-250,87-417,295-457,567c-5,40-10,349-10,737v667h-276h-275L3332,8298z"/>
	<path class="st2" d="M15931,6918l3-2093l273-3l272-2v2095v2095h-275h-275L15931,6918z"/>
	<path class="rect_1" d="M2919,2260v-450h1190h1190v450v450H4109H2919V2260z"/>
	<path class="rect_2" d="M5819,2260v-450h1190h1190v450v450H7009H5819V2260z"/>
	<path class="rect_3" d="M8719,2260v-450h1190h1190v450v450H9909H8719V2260z"/>
	<path class="rect_4" d="M11619,2260v-450h1190h1190v450v450h-1190h-1190V2260z"/>
	<path class="rect_5" d="M14519,2260v-450h1190h1190v450v450h-1190h-1190V2260z"/>
</g>
</svg>