<svg xmlns="http://www.w3.org/2000/svg" width="25" height="17" viewBox="0 0 25 17" fill="none">
    <g clip-path="url(#clip0_13_1205)">
        <path d="M22.5 0.5H2.5C1.39543 0.5 0.5 1.39543 0.5 2.5V14.5C0.5 15.6046 1.39543 16.5 2.5 16.5H22.5C23.6046 16.5 24.5 15.6046 24.5 14.5V2.5C24.5 1.39543 23.6046 0.5 22.5 0.5Z" fill="#016FD0"/>
        <path fill-rule="evenodd" clip-rule="evenodd" d="M14.2637 13.8939V8.19247L24.4112 8.20158V9.77647L23.2383 11.0299L24.4112 12.2948V13.9031H22.5386L21.5434 12.8049L20.5553 13.9072L14.2637 13.8939Z" fill="#FFFFFE"/>
        <path fill-rule="evenodd" clip-rule="evenodd" d="M14.9414 13.2688V8.81992H18.7137V9.8448H16.1628V10.5405H18.6529V11.5483H16.1628V12.2316H18.7137V13.2688H14.9414Z" fill="#016FD0"/>
        <path fill-rule="evenodd" clip-rule="evenodd" d="M18.6954 13.2688L20.7827 11.0418L18.6953 8.82001H20.311L21.5865 10.23L22.8656 8.82001H24.4117V8.85501L22.3689 11.0418L24.4117 13.2057V13.2688H22.85L21.5519 11.8446L20.2671 13.2688H18.6954Z" fill="#016FD0"/>
        <path fill-rule="evenodd" clip-rule="evenodd" d="M14.7369 3.13196H17.1829L18.0421 5.08281V3.13196H21.0619L21.5827 4.59353L22.1052 3.13196H24.4111V8.83335H12.2246L14.7369 3.13196Z" fill="#FFFFFE"/>
        <path fill-rule="evenodd" clip-rule="evenodd" d="M15.2006 3.75134L13.2266 8.19651H14.5805L14.9529 7.30635H16.9708L17.343 8.19651H18.7306L16.7648 3.75134H15.2006ZM15.3702 6.30878L15.9622 4.89371L16.5538 6.30878H15.3702Z" fill="#016FD0"/>
        <path fill-rule="evenodd" clip-rule="evenodd" d="M18.7119 8.19572V3.75064L20.615 3.75718L21.5943 6.48991L22.5799 3.75064H24.4115V8.19572L23.2329 8.20615V5.15281L22.1204 8.19572H21.0446L19.9089 5.14238V8.19572H18.7119Z" fill="#016FD0"/>
    </g>
    <defs>
        <clipPath id="clip0_13_1205">
            <rect width="24" height="16" fill="white" transform="translate(0.5 0.5)"/>
        </clipPath>
    </defs>
</svg>
