<svg width="17" height="16" viewBox="0 0 17 16" fill="none" xmlns="http://www.w3.org/2000/svg">
    <g clip-path="url(#clip0_13_1026)">
        <path fill-rule="evenodd" clip-rule="evenodd" d="M16.5 4H0.5V3.25C0.5 2.56 0.948 2 1.5 2H15.5C16.052 2 16.5 2.56 16.5 3.25V4ZM16.5 6.5V13C16.5 13.2652 16.3946 13.5196 16.2071 13.7071C16.0196 13.8946 15.7652 14 15.5 14H1.5C1.23478 14 0.98043 13.8946 0.792893 13.7071C0.605357 13.5196 0.5 13.2652 0.5 13V6.5H16.5ZM4.5 10C4.23478 10 3.98043 10.1054 3.79289 10.2929C3.60536 10.4804 3.5 10.7348 3.5 11C3.5 11.2652 3.60536 11.5196 3.79289 11.7071C3.98043 11.8946 4.23478 12 4.5 12H5.5C5.76522 12 6.01957 11.8946 6.20711 11.7071C6.39464 11.5196 6.5 11.2652 6.5 11C6.5 10.7348 6.39464 10.4804 6.20711 10.2929C6.01957 10.1054 5.76522 10 5.5 10H4.5Z" fill="#2E2D28"/>
    </g>
    <defs>
        <clipPath id="clip0_13_1026">
            <rect width="16" height="16" fill="white" transform="translate(0.5)"/>
        </clipPath>
    </defs>
</svg>
