<svg xmlns="http://www.w3.org/2000/svg" width="25" height="17" viewBox="0 0 25 17" fill="none">
    <g clip-path="url(#clip0_13_1215)">
        <path d="M22.4972 16.2499L22.4994 16.2499C23.4545 16.2581 24.2381 15.4773 24.25 14.5042L24.25 2.5063C24.2462 2.03569 24.0589 1.58617 23.7297 1.2568C23.4014 0.928269 22.9589 0.746149 22.4972 0.750071L2.50064 0.750062C2.04109 0.746149 1.59858 0.928269 1.27028 1.2568C0.941145 1.58617 0.753838 2.03569 0.750008 2.50426L0.75 14.4937C0.753838 14.9643 0.941145 15.4138 1.27028 15.7432C1.59858 16.0717 2.04109 16.2538 2.50277 16.2499H22.4972ZM22.4962 16.7499C22.4958 16.7499 22.4955 16.7499 22.4951 16.7499L22.4972 16.7499H22.4962Z" fill="white" stroke="black" stroke-opacity="0.2" stroke-width="0.5"/>
        <path d="M13.1123 16.4999H22.4971C23.0239 16.5043 23.5309 16.2993 23.9065 15.9299C24.2821 15.5605 24.4955 15.0571 24.4999 14.5303V12.1717C20.9561 14.206 17.1127 15.6668 13.1123 16.4999Z" fill="#F27712"/>
        <path d="M23.672 9.79649H22.8196L21.8596 8.53029H21.7685V9.79649H21.0734V6.65167H22.0996C22.9023 6.65167 23.3658 6.9827 23.3658 7.57856C23.3658 8.06684 23.0761 8.38132 22.5547 8.48063L23.672 9.79649ZM22.6458 7.60339C22.6458 7.29718 22.414 7.13994 21.9837 7.13994H21.7685V8.09167H21.9671C22.414 8.09167 22.6458 7.92615 22.6458 7.60339ZM18.6403 6.65167H20.6099V7.18132H19.3354V7.88477H20.5603V8.4227H19.3354V9.27512H20.6099V9.80477H18.6403V6.65167ZM16.4058 9.87925L14.8996 6.64339H15.6609L16.6127 8.76201L17.5727 6.64339H18.3175L16.7947 9.87925H16.4223H16.4058ZM10.1078 9.87098C9.04853 9.87098 8.22094 9.15098 8.22094 8.21581C8.22094 7.30546 9.06508 6.56891 10.1244 6.56891C10.4223 6.56891 10.6706 6.62684 10.9768 6.75925V7.48753C10.7449 7.25971 10.4329 7.13194 10.1078 7.13167C9.44577 7.13167 8.94094 7.61167 8.94094 8.21581C8.94094 8.85305 9.43749 9.30822 10.1409 9.30822C10.4554 9.30822 10.6954 9.20891 10.9768 8.96063V9.68891C10.6623 9.82132 10.3975 9.87098 10.1078 9.87098ZM8.00577 8.83649C8.00577 9.44891 7.50094 9.87098 6.77267 9.87098C6.24301 9.87098 5.86232 9.68891 5.53956 9.27512L5.99473 8.88615C6.15198 9.16753 6.4168 9.30822 6.74784 9.30822C7.06232 9.30822 7.28577 9.11787 7.28577 8.8696C7.28577 8.72891 7.21956 8.62132 7.07887 8.53856C6.92461 8.46371 6.76397 8.40277 6.59887 8.35649C5.94508 8.1496 5.72163 7.92615 5.72163 7.48753C5.72163 6.97443 6.20163 6.58546 6.8306 6.58546C7.22784 6.58546 7.5837 6.7096 7.88163 6.94132L7.51749 7.35512C7.37317 7.1969 7.16889 7.10677 6.95473 7.10684C6.6568 7.10684 6.44163 7.25581 6.44163 7.45443C6.44163 7.61994 6.56577 7.71098 6.97956 7.85167C7.77404 8.09994 8.00577 8.33167 8.00577 8.84477V8.83649ZM4.58784 6.65167H5.28301V9.80477H4.58784V6.65167ZM2.35336 9.80477H1.32715V6.65167H2.35336C3.47887 6.65167 4.2568 7.29718 4.2568 8.22408C4.2568 8.69581 4.02508 9.1427 3.61956 9.44063C3.27198 9.68891 2.88301 9.80477 2.34508 9.80477H2.35336ZM3.16439 7.43787C2.93267 7.25581 2.66784 7.1896 2.21267 7.1896H2.02232V9.27512H2.21267C2.65956 9.27512 2.94094 9.19236 3.16439 9.02684C3.40439 8.82822 3.54508 8.53029 3.54508 8.22408C3.54508 7.91787 3.40439 7.62822 3.16439 7.43787Z" fill="black"/>
        <path d="M12.914 6.56891C12.0036 6.56891 11.2588 7.29718 11.2588 8.19925C11.2588 9.15925 11.9705 9.87925 12.914 9.87925C13.8409 9.87925 14.5691 9.15098 14.5691 8.22408C14.5691 7.29718 13.8491 6.56891 12.914 6.56891Z" fill="#F27712"/>
    </g>
    <defs>
        <clipPath id="clip0_13_1215">
            <rect width="24" height="16" fill="white" transform="translate(0.5 0.5)"/>
        </clipPath>
    </defs>
</svg>
