<svg xmlns="http://www.w3.org/2000/svg" width="25" height="17" viewBox="0 0 25 17" fill="none">
    <g clip-path="url(#clip0_13_1199)">
        <path d="M22.5 0.5H2.5C1.39543 0.5 0.5 1.39543 0.5 2.5V14.5C0.5 15.6046 1.39543 16.5 2.5 16.5H22.5C23.6046 16.5 24.5 15.6046 24.5 14.5V2.5C24.5 1.39543 23.6046 0.5 22.5 0.5Z" fill="#252525"/>
        <path d="M9.5 13.5C12.2614 13.5 14.5 11.2614 14.5 8.5C14.5 5.73858 12.2614 3.5 9.5 3.5C6.73858 3.5 4.5 5.73858 4.5 8.5C4.5 11.2614 6.73858 13.5 9.5 13.5Z" fill="#EB001B"/>
        <path d="M15.5 13.5C18.2614 13.5 20.5 11.2614 20.5 8.5C20.5 5.73858 18.2614 3.5 15.5 3.5C12.7386 3.5 10.5 5.73858 10.5 8.5C10.5 11.2614 12.7386 13.5 15.5 13.5Z" fill="#F79E1B"/>
        <path fill-rule="evenodd" clip-rule="evenodd" d="M12.5 4.49963C13.7144 5.41184 14.5 6.86418 14.5 8.5C14.5 10.1358 13.7144 11.5882 12.5 12.5004C11.2856 11.5882 10.5 10.1358 10.5 8.5C10.5 6.86418 11.2856 5.41184 12.5 4.49963Z" fill="#FF5F00"/>
    </g>
    <defs>
        <clipPath id="clip0_13_1199">
            <rect width="24" height="16" fill="white" transform="translate(0.5 0.5)"/>
        </clipPath>
    </defs>
</svg>
