<svg xmlns="http://www.w3.org/2000/svg" width="25" height="17" viewBox="0 0 25 17" fill="none">
    <g clip-path="url(#clip0_13_1191)">
        <path d="M22.25 0.75H2.75C1.64543 0.75 0.75 1.64543 0.75 2.75V14.25C0.75 15.3546 1.64543 16.25 2.75 16.25H22.25C23.3546 16.25 24.25 15.3546 24.25 14.25V2.75C24.25 1.64543 23.3546 0.75 22.25 0.75Z" fill="white" stroke="black" stroke-opacity="0.2" stroke-width="0.5"/>
        <path d="M3.28773 6.41444C2.76459 6.12751 2.16754 5.89674 1.5 5.73659L1.528 5.61188H4.26498C4.63596 5.62489 4.93699 5.73651 5.03495 6.13071L5.62977 8.96659L5.81198 9.82073L7.47797 5.61188H9.27679L6.60288 11.7775H4.80397L3.28773 6.41444ZM10.6 11.7841H8.89883L9.96285 5.61188H11.6639L10.6 11.7841ZM16.7668 5.76277L16.5354 7.09559L16.3816 7.03004C16.0737 6.90525 15.6674 6.78054 15.1144 6.79371C14.4427 6.79371 14.1415 7.06277 14.1345 7.32546C14.1345 7.61441 14.4989 7.80484 15.0939 8.08725C16.074 8.52719 16.5286 9.06557 16.5218 9.76819C16.5081 11.0486 15.346 11.8761 13.5611 11.8761C12.7979 11.8694 12.0628 11.7181 11.6638 11.5476L11.9019 10.162L12.1259 10.2607C12.6789 10.4907 13.0428 10.589 13.722 10.589C14.2118 10.589 14.7369 10.3984 14.7436 9.98488C14.7436 9.71565 14.5199 9.51851 13.8617 9.21646C13.2178 8.92087 12.3568 8.42848 12.3708 7.54198C12.3781 6.34042 13.5611 5.5 15.241 5.5C15.899 5.5 16.4312 5.63789 16.7668 5.76277ZM19.0278 9.59749H20.4417C20.3718 9.28889 20.0496 7.81147 20.0496 7.81147L19.9307 7.27964C19.8467 7.50943 19.6999 7.88373 19.7069 7.87056C19.7069 7.87056 19.1678 9.2429 19.0278 9.59749ZM21.1276 5.61188L22.5 11.784H20.9249C20.9249 11.784 20.7708 11.0748 20.7219 10.8581H18.5378C18.4746 11.0222 18.1808 11.784 18.1808 11.784H16.3958L18.9226 6.12399C19.0977 5.72342 19.406 5.61188 19.8118 5.61188H21.1276Z" fill="#171E6C"/>
    </g>
    <defs>
        <clipPath id="clip0_13_1191">
            <rect width="24" height="16" fill="white" transform="translate(0.5 0.5)"/>
        </clipPath>
    </defs>
</svg>
